Coordinates
version=1
nRows=20
nColumns=17
inDegrees=yes

Units are S.I. units (second, meters, Newtons, ...)
If the header above contains a line with 'inDegrees', this indicates whether rotational values are in degrees (yes) or radians (no).

endheader
time	pelvis_tilt	pelvis_tx	pelvis_ty	hip_flexion_l	hip_flexion_r	knee_angle_l	knee_angle_r	ankle_angle_l	ankle_angle_r	lumbar_extension	FC_flexion	FC_adduction	FC_rotation	FC_tx	FC_ty	FC_tz
      2.77000000	    101.29925447	     -0.31867002	      1.03715028	     74.92354850	    -11.67804865	    -88.18941233	     -2.97256461	    -25.86410868	    -48.28747412	    -26.73707724	     -3.82524013	     -5.34845003	     91.33148582	     -0.14080445	     -0.12843362	     -0.20354433
      2.78000000	    101.30712615	     -0.31868267	      1.03714422	     74.94621653	    -11.68525309	    -88.02969961	     -2.97211532	    -25.84999665	    -48.28012894	    -26.74865078	     -3.76172672	     -5.39290305	     91.24715849	     -0.14094688	     -0.12856287	     -0.20349790
      2.79000000	    101.31731754	     -0.31870639	      1.03708641	     74.96768937	    -11.68663082	    -87.87271266	     -2.98276241	    -25.81014599	    -48.26451506	    -26.76675915	     -3.80301966	     -5.40534410	     91.17366168	     -0.14098342	     -0.12871579	     -0.20347365
      2.80000000	    101.32466102	     -0.31871747	      1.03706480	     74.99138849	    -11.69227177	    -87.71755730	     -2.98230030	    -25.77516588	    -48.25206205	    -26.77638761	     -3.97655355	     -5.37973376	     91.00867742	     -0.14081083	     -0.12871899	     -0.20350884
      2.81000000	    101.31110318	     -0.31871010	      1.03705158	     75.03137048	    -11.66340672	    -87.57590971	     -3.00886240	    -25.59661599	    -48.21277545	    -26.76565408	     -3.76057442	     -5.41033652	     90.87717485	     -0.14082870	     -0.12889238	     -0.20315345
      2.82000000	    101.31900906	     -0.31871813	      1.03700513	     75.05355698	    -11.67413392	    -87.43985945	     -2.99835902	    -25.59261684	    -48.21169928	    -26.77932882	     -3.72073123	     -5.42736073	     90.69149312	     -0.14093839	     -0.12902163	     -0.20305622
      2.83000000	    101.33287728	     -0.31871089	      1.03694947	     75.06613005	    -11.68254105	    -87.29394065	     -3.00183612	    -25.56600418	    -48.20922514	    -26.79849616	     -3.95847933	     -5.41129469	     90.39139601	     -0.14078133	     -0.12899876	     -0.20322827
      2.84000000	    101.33268895	     -0.31871207	      1.03692192	     75.09750941	    -11.67329317	    -87.15684893	     -3.01618836	    -25.57566601	    -48.20242528	    -26.80967380	     -3.78891438	     -5.46766137	     90.10124410	     -0.14090927	     -0.12918310	     -0.20311506
      2.85000000	    101.33714869	     -0.31873258	      1.03695177	     75.11914002	    -11.68354946	    -87.01339339	     -3.00600258	    -25.59264432	    -48.19403652	    -26.80851001	     -3.82060474	     -5.50918469	     89.89341953	     -0.14084416	     -0.12924376	     -0.20315195
      2.86000000	    101.34291265	     -0.31873525	      1.03692291	     75.13877677	    -11.68255445	    -86.86610256	     -3.01847420	    -25.59901834	    -48.18198019	    -26.81966751	     -3.68974864	     -5.57947049	     89.75225150	     -0.14097783	     -0.12927249	     -0.20312711
      2.87000000	    101.34995600	     -0.31874158	      1.03690613	     75.15713114	    -11.69230947	    -86.71775652	     -3.01315585	    -25.60381240	    -48.16850312	    -26.82886230	     -3.89664858	     -5.58351319	     89.59357866	     -0.14099954	     -0.12933104	     -0.20321778
      2.88000000	    101.35201634	     -0.31874124	      1.03691555	     75.19087039	    -11.68982722	    -86.59124901	     -3.02126340	    -25.59614800	    -48.15977108	    -26.83248992	     -3.64705856	     -5.67886670	     89.43806784	     -0.14096068	     -0.12959600	     -0.20313011
      2.89000000	    101.37380668	     -0.31876407	      1.03689768	     75.19122951	    -11.71319280	    -86.41508392	     -3.01591647	    -25.57489544	    -48.14683913	    -26.85017232	     -3.84935508	     -5.69237516	     89.23018533	     -0.14100454	     -0.12961747	     -0.20318437
      2.90000000	    101.37941479	     -0.31878026	      1.03688754	     75.20734317	    -11.71489487	    -86.27857818	     -3.02696145	    -25.55887874	    -48.14593050	    -26.86714360	     -3.64965273	     -5.79588174	     89.01926190	     -0.14092050	     -0.12987683	     -0.20311681
      2.91000000	    101.43533170	     -0.31890524	      1.03677558	     75.16636132	    -11.76208702	    -86.10090129	     -3.03702384	    -25.53434103	    -48.14469631	    -26.94183174	     -3.66566388	     -5.83627786	     88.71660115	     -0.14095585	     -0.13002469	     -0.20320219
      2.92000000	    101.46747776	     -0.31894463	      1.03673541	     75.15304676	    -11.79032896	    -85.91457472	     -3.04477303	    -25.53524739	    -48.13790250	    -26.98555927	     -3.74582800	     -5.90094525	     88.39302655	     -0.14088019	     -0.13013745	     -0.20337848
      2.93000000	    101.46986696	     -0.31887374	      1.03678982	     75.17661078	    -11.80132664	    -85.75511278	     -3.03725475	    -25.53282374	    -48.12993797	    -26.98626329	     -3.69484595	     -6.00753648	     88.20674055	     -0.14097468	     -0.13016886	     -0.20366833
      2.94000000	    101.47757967	     -0.31888531	      1.03679954	     75.20595237	    -11.81869840	    -85.58104760	     -3.02218709	    -25.53412417	    -48.12183817	    -26.99369269	     -3.68608509	     -6.10347544	     88.00806344	     -0.14091554	     -0.13039306	     -0.20394004
      2.95000000	    101.48646564	     -0.31890361	      1.03678244	     75.20957793	    -11.82459339	    -85.38361932	     -3.02701293	    -25.49770110	    -48.10486699	    -27.00826355	     -3.98578504	     -6.12687251	     87.88668762	     -0.14079633	     -0.13039480	     -0.20423546
      2.96000000	    101.49610996	     -0.31891094	      1.03681981	     75.22852855	    -11.82805336	    -85.20072103	     -3.04391633	    -25.47968125	    -48.09239539	    -27.01550610	     -3.76198720	     -6.20243748	     87.93641220	     -0.14079079	     -0.13061215	     -0.20404182
